# *************************************************************************
#  This file is part of Life, Death, and the Objective ("LDO")
#  a simple squad-tactics strategy game by Steaphan Greene
#
#  Copyright 2005-2008 Steaphan Greene <stea@cs.binghamton.edu>
#
#  LDO is free software; you can redistribute it and/or modify
#  it under the terms of the GNU General Public License as published by
#  the Free Software Foundation; either version 2 of the License, or
#  (at your option) any later version.
#
#  LDO is distributed in the hope that it will be useful,
#  but WITHOUT ANY WARRANTY; without even the implied warranty of
#  MERCHANTABILITY or FITNESS FOR A PARTICULAR PURPOSE.  See the
#  GNU General Public License for more details.
#
#  You should have received a copy of the GNU General Public License
#  along with LDO (see the file named "COPYING");
#  if not, write to the the Free Software Foundation, Inc.,
#  59 Temple Place, Suite 330, Boston, MA  02111-1307  USA
# *************************************************************************
mtllib fence1.mtl
o fence1
v 0.200000 0.200000 2.000000
v 0.200000 0.200000 0.000000
v -0.200000 0.200000 0.000000
v -0.200000 0.200000 2.000000
v -0.200000 -0.200000 0.000000
v -0.200000 -0.200000 2.000000
v 0.200000 -0.200000 0.000000
v 0.200000 -0.200000 2.000000
v 2.000000 0.050000 1.800000
v 2.000000 0.050000 1.400000
v 0.000000 0.050000 1.800000
v 0.000000 0.050000 1.400000
v 0.000000 -0.050000 1.400000
v 0.000000 -0.050000 1.800000
v 2.000000 -0.050000 1.400000
v 2.000000 -0.050000 1.800000
v 2.000000 0.050000 1.000000
v 2.000000 0.050000 0.600000
v 0.000000 0.050000 1.000000
v 0.000000 0.050000 0.600000
v 0.000000 -0.050000 0.600000
v 0.000000 -0.050000 1.000000
v 2.000000 -0.050000 0.600000
v 2.000000 -0.050000 1.000000
vt 0.000000 1.000000 0.0
vt 0.000000 0.000000 0.0
vt 1.000000 0.000000 0.0
vn 0.000000 1.000000 0.000000
vn -1.000000 0.000000 0.000000
vn 0.000000 -1.000000 0.000000
vn 1.000000 0.000000 0.000000
vn 0.000000 0.000000 1.000000
vn 0.000000 0.000000 -1.000000
usemtl Material.001
s off
f 1/1/1 2/2/1 3/3/1
f 1/1/1 3/2/1 4/3/1
f 5/1/2 6/2/2 4/3/2
f 5/1/2 4/2/2 3/3/2
f 7/1/3 8/2/3 5/3/3
f 8/1/3 6/2/3 5/3/3
f 2/1/4 1/2/4 7/3/4
f 1/1/4 8/2/4 7/3/4
f 1/1/5 4/2/5 8/3/5
f 4/1/5 6/2/5 8/3/5
f 2/1/6 7/2/6 5/3/6
f 2/1/6 5/2/6 3/3/6
f 9/1/1 10/2/1 11/3/1
f 10/1/1 12/2/1 11/3/1
f 13/1/2 14/2/2 11/3/2
f 13/1/2 11/2/2 12/3/2
f 15/1/3 16/2/3 13/3/3
f 16/1/3 14/2/3 13/3/3
f 10/1/4 9/2/4 15/3/4
f 9/1/4 16/2/4 15/3/4
f 9/1/5 11/2/5 16/3/5
f 11/1/5 14/2/5 16/3/5
f 10/1/6 15/2/6 12/3/6
f 15/1/6 13/2/6 12/3/6
f 17/1/1 18/2/1 19/3/1
f 18/1/1 20/2/1 19/3/1
f 21/1/2 22/2/2 19/3/2
f 21/1/2 19/2/2 20/3/2
f 23/1/3 24/2/3 21/3/3
f 24/1/3 22/2/3 21/3/3
f 18/1/4 17/2/4 23/3/4
f 17/1/4 24/2/4 23/3/4
f 17/1/5 19/2/5 24/3/5
f 19/1/5 22/2/5 24/3/5
f 18/1/6 23/2/6 20/3/6
f 23/1/6 21/2/6 20/3/6
