# *************************************************************************
#  This file is part of Life, Death, and the Objective ("LDO")
#  a simple squad-tactics strategy game by Steaphan Greene
#
#  Copyright 2005-2008 Steaphan Greene <stea@cs.binghamton.edu>
#
#  LDO is free software; you can redistribute it and/or modify
#  it under the terms of the GNU General Public License as published by
#  the Free Software Foundation; either version 3 of the License, or
#  (at your option) any later version.
#
#  LDO is distributed in the hope that it will be useful,
#  but WITHOUT ANY WARRANTY; without even the implied warranty of
#  MERCHANTABILITY or FITNESS FOR A PARTICULAR PURPOSE.  See the
#  GNU General Public License for more details.
#
#  You should have received a copy of the GNU General Public License
#  along with LDO (see the file named "COPYING");
#  If not, see <http://www.gnu.org/licenses/>.
#  
# *************************************************************************
mtllib ramp_med.mtl
o ramp_med
v 1.000000 1.000000 1.031250
v -1.000000 1.000000 1.031250
v -1.000000 -1.000000 2.03125
v 1.000000 -1.000000 2.03125
v 1.000000 -1.000000 1.968750
v -1.000000 -1.000000 1.968750
v -1.000000 1.000000 0.968750
v 1.000000 1.000000 0.968750
vn 0.000000 0.447214 0.894427
vn 0.000000 1.000000 0.000000
vn -1.000000 0.000000 0.000000
vn 0.000000 -1.000000 0.000000
vn 1.000000 0.000000 0.000000
vn 0.000000 -0.447214 -0.894427
vt 0.000000 0.000000 0.000000
vt 0.000000 1.000000 0.000000
vt 1.000000 1.000000 0.000000
vt 1.000000 0.000000 0.000000
s off
f 1/1/1 2/2/1 3/3/1 4/4/1
f 2/1/2 1/2/2 8/1/2 7/2/2
f 3/2/3 2/3/3 7/3/3 6/2/3
f 4/3/4 3/4/4 6/4/4 5/3/4
f 1/4/5 4/1/5 5/1/5 8/4/5
f 5/1/6 6/2/6 7/3/6 8/4/6
