# *************************************************************************
#  This file is part of Life, Death, and the Objective ("LDO")
#  a simple squad-tactics strategy game by Steaphan Greene
#
#  Copyright 2005-2008 Steaphan Greene <stea@cs.binghamton.edu>
#
#  LDO is free software; you can redistribute it and/or modify
#  it under the terms of the GNU General Public License as published by
#  the Free Software Foundation; either version 2 of the License, or
#  (at your option) any later version.
#
#  LDO is distributed in the hope that it will be useful,
#  but WITHOUT ANY WARRANTY; without even the implied warranty of
#  MERCHANTABILITY or FITNESS FOR A PARTICULAR PURPOSE.  See the
#  GNU General Public License for more details.
#
#  You should have received a copy of the GNU General Public License
#  along with LDO (see the file named "COPYING");
#  if not, write to the the Free Software Foundation, Inc.,
#  59 Temple Place, Suite 330, Boston, MA  02111-1307  USA
# *************************************************************************
mtllib wall_med.mtl
o wall_med
v 2.000000 0.400000 0.000000
v 2.000000 -0.400000 0.000000
v 0.000000 -0.400000 0.000000
v 0.000000 0.400000 0.000000
v 2.000000 0.400000 3.000000
v 0.000000 0.400000 3.000000
v 0.000000 -0.400000 3.000000
v 2.000000 -0.400000 3.000000
vt 0.000000 1.000000 0.0
vt 0.000000 0.000000 0.0
vt 1.000000 0.000000 0.0
vt 1.000000 1.000000 0.0
vn 0.577349 0.577349 -0.577349
vn 0.577349 -0.577349 -0.577349
vn -0.577349 -0.577349 -0.577349
vn -0.577349 0.577349 -0.577349
vn 0.577349 0.577349 0.577349
vn -0.577349 0.577349 0.577349
vn -0.577349 -0.577349 0.577349
vn 0.577349 -0.577349 0.577349
usemtl Material
s 1
f 5/4/5 6/3/6 7/2/7 8/1/8
f 1/4/1 5/3/5 8/2/8 2/1/2
f 2/4/2 8/3/8 7/2/7 3/1/3
f 3/4/3 7/3/7 6/2/6 4/1/4
f 4/4/4 6/3/6 5/2/5 1/1/1
