# *************************************************************************
#  This file is part of Life, Death, and the Objective ("LDO")
#  a simple squad-tactics strategy game by Steaphan Greene
#
#  Copyright 2005-2008 Steaphan Greene <stea@cs.binghamton.edu>
#
#  LDO is free software; you can redistribute it and/or modify
#  it under the terms of the GNU General Public License as published by
#  the Free Software Foundation; either version 2 of the License, or
#  (at your option) any later version.
#
#  LDO is distributed in the hope that it will be useful,
#  but WITHOUT ANY WARRANTY; without even the implied warranty of
#  MERCHANTABILITY or FITNESS FOR A PARTICULAR PURPOSE.  See the
#  GNU General Public License for more details.
#
#  You should have received a copy of the GNU General Public License
#  along with LDO (see the file named "COPYING");
#  if not, write to the the Free Software Foundation, Inc.,
#  59 Temple Place, Suite 330, Boston, MA  02111-1307  USA
# *************************************************************************
mtllib wfence1.mtl
o wfence1
v -0.800000 -0.800000 2.937500
v -0.800000 -1.200000 2.937500
v -0.800000 -1.200000 0.000000
v -0.800000 -0.800000 0.000000
v -1.200000 -1.200000 2.937500
v -1.200000 -0.800000 2.937500
v -1.200000 -0.800000 0.000000
v -1.200000 -1.200000 0.000000
v -0.950000 1.000000 2.500000
v -0.950000 1.000000 2.000000
v -1.050000 1.000000 2.000000
v -1.050000 1.000000 2.500000
v -1.050000 -1.000000 2.500000
v -0.950000 -1.000000 2.500000
v -0.950000 -1.000000 2.000000
v -0.950000 1.000000 1.250000
v -0.950000 1.000000 0.750000
v -1.050000 1.000000 0.750000
v -1.050000 1.000000 1.250000
v -1.050000 -1.000000 1.250000
v -0.950000 -1.000000 1.250000
v -0.950000 -1.000000 0.750000
v -1.050000 -1.000000 2.000000
v -1.050000 -1.000000 0.750000
vt 0.000000 1.000000 0.0
vt 0.000000 0.000000 0.0
vt 1.000000 0.000000 0.0
vt 1.000000 1.000000 0.0
vn 1.000000 0.000000 0.000000
vn -1.000000 0.000000 0.000000
vn 0.000000 0.000000 1.000000
vn 0.000000 -1.000000 0.000000
vn 0.000000 1.000000 0.000000
usemtl Material
s off
f 1/1/1 2/2/1 3/3/1 4/4/1
f 5/1/2 6/2/2 7/3/2 8/4/2
f 2/3/3 1/4/3 6/1/3 5/2/3
f 2/1/4 5/2/4 8/3/4 3/4/4
f 6/3/5 1/4/5 4/1/5 7/2/5
f 9/1/5 10/2/5 11/3/5 12/4/5
f 12/1/3 13/2/3 14/3/3 9/4/3
f 14/1/1 15/2/1 10/3/1 9/4/1
f 16/1/5 17/2/5 18/3/5 19/4/5
f 19/1/3 20/2/3 21/3/3 16/4/3
f 21/1/1 22/2/1 17/3/1 16/4/1
f 12/1/2 11/2/2 23/3/2 13/4/2
f 19/1/2 18/2/2 24/3/2 20/4/2
